<svg width="1677" height="130" viewBox="0 0 1677 130" fill="none" xmlns="http://www.w3.org/2000/svg">
<g clip-path="url(#clip0_710_1158)">
<mask id="mask0_710_1158" style="mask-type:alpha" maskUnits="userSpaceOnUse" x="0" y="-26" width="1677" height="182">
<g clip-path="url(#clip1_710_1158)">
<g clip-path="url(#clip2_710_1158)">
<path d="M1.23316 -26H0.114258V155.23H1.23316V-26Z" fill="#123854"/>
<path d="M19.435 -26H17.1846V155.23H19.4366V-26H19.435Z" fill="#123854"/>
<path d="M821.665 69.4152H820.122V-26H817.87V69.4152H816.327V155.23H821.665V69.4152Z" fill="#123854"/>
<path d="M803.43 69.4152H801.934V-26H799.682V69.4152H798.171V155.23H803.43V69.4152Z" fill="#123854"/>
<path d="M785.195 69.4152H783.729V-26H781.477V69.4152H780.013V155.23H785.195V69.4152Z" fill="#123854"/>
<path d="M766.974 69.4152H765.526V-26H763.274V69.4152H761.841V155.23H766.974V69.4152Z" fill="#123854"/>
<path d="M748.739 69.4152H747.338V-26H745.086V69.4152H743.685V155.23H748.739V69.4152Z" fill="#123854"/>
<path d="M730.504 69.4152H729.135V-26H726.883V69.4152H725.512V155.23H730.504V69.4152Z" fill="#123854"/>
<path d="M712.269 69.4152H710.946V-26H708.694V69.4152H707.356V155.23H712.269V69.4152Z" fill="#123854"/>
<path d="M694.049 69.4152H692.742V-26H690.49V69.4152H689.184V155.23H694.049V69.4152Z" fill="#123854"/>
<path d="M675.814 69.4152H674.539V-26H672.303V69.4152H671.026V155.23H675.814V69.4152Z" fill="#123854"/>
<path d="M657.579 69.4152H656.35V-26H654.098V69.4152H652.87V155.23H657.579V69.4152Z" fill="#123854"/>
<path d="M639.342 69.4152H638.146V-26H635.894V69.4152H634.698V155.23H639.342V69.4152Z" fill="#123854"/>
<path d="M621.123 69.4152H619.959V-26H617.707V69.4152H616.541V155.23H621.123V69.4152Z" fill="#123854"/>
<path d="M602.888 69.4152H601.754V-26H599.502V69.4152H598.369V155.23H602.888V69.4152Z" fill="#123854"/>
<path d="M584.654 69.4152H583.55V-26H581.314V69.4152H580.213V155.23H584.654V69.4152Z" fill="#123854"/>
<path d="M566.417 69.4152H565.363V-26H563.111V69.4152H562.055V155.23H566.417V69.4152Z" fill="#123854"/>
<path d="M548.182 69.4152H547.159V-26H544.907V69.4152H543.883V155.23H548.182V69.4152Z" fill="#123854"/>
<path d="M529.963 69.4152H528.97V-26H526.718V69.4152H525.727V155.23H529.963V69.4152Z" fill="#123854"/>
<path d="M511.726 69.4152H510.767V-26H508.515V69.4152H507.553V155.23H511.726V69.4152Z" fill="#123854"/>
<path d="M493.492 69.4152H492.563V-26H490.327V69.4152H489.397V155.23H493.492V69.4152Z" fill="#123854"/>
<path d="M475.257 69.4152H474.374V-26H472.122V69.4152H471.226V155.23H475.257V69.4152Z" fill="#123854"/>
<path d="M457.038 69.4152H456.171V-26H453.919V69.4152H453.068V155.23H457.038V69.4152Z" fill="#123854"/>
<path d="M438.801 69.4152H437.983V-26H435.731V69.4152H434.912V155.23H438.801V69.4152Z" fill="#123854"/>
<path d="M420.566 69.4152H419.778V-26H417.526V69.4152H416.74V155.23H420.566V69.4152Z" fill="#123854"/>
<path d="M402.332 69.4152H401.575V-26H399.339V69.4152H398.584V155.23H402.332V69.4152Z" fill="#123854"/>
<path d="M384.111 69.4152H383.387V-26H381.135V69.4152H380.41V155.23H384.111V69.4152Z" fill="#123854"/>
<path d="M365.876 69.4152H365.182V-26H362.932V69.4152H362.254V155.23H365.876V69.4152Z" fill="#123854"/>
<path d="M347.641 69.4152H346.995V-26H344.743V69.4152H344.098V155.23H347.641V69.4152Z" fill="#123854"/>
<path d="M329.406 69.4152H328.791V-26H326.539V69.4152H325.925V155.23H329.406V69.4152Z" fill="#123854"/>
<path d="M311.17 69.4152H310.604V-26H308.352V69.4152H307.769V155.23H311.17V69.4152Z" fill="#123854"/>
<path d="M292.95 69.4152H292.399V-26H290.147V69.4152H289.597V155.23H292.95V69.4152Z" fill="#123854"/>
<path d="M274.716 69.4152H274.195V-26H271.944V69.4152H271.439V155.23H274.716V69.4152Z" fill="#123854"/>
<path d="M256.479 69.4152H256.008V-26H253.756V69.4152H253.267V155.23H256.479V69.4152Z" fill="#123854"/>
<path d="M238.244 69.4152H237.803V-26H235.551V69.4152H235.111V155.23H238.244V69.4152Z" fill="#123854"/>
<path d="M220.025 69.4152H219.615V-26H217.363V69.4152H216.954V155.23H220.025V69.4152Z" fill="#123854"/>
<path d="M201.79 69.4152H201.412V-26H199.16V69.4152H198.782V155.23H201.79V69.4152Z" fill="#123854"/>
<path d="M183.554 69.4152H183.207V-26H180.957V69.4152H180.626V155.23H183.554V69.4152Z" fill="#123854"/>
<path d="M165.319 69.4152H165.019V-26H162.767V69.4152H162.452V155.23H165.319V69.4152Z" fill="#123854"/>
<path d="M147.1 69.4152H146.816V-26H144.562V69.4152H144.294V155.23H147.098L147.1 69.4152Z" fill="#123854"/>
<path d="M128.863 69.4152H128.627V-26H126.376V69.4152H126.124V155.23H128.865L128.863 69.4152Z" fill="#123854"/>
<path d="M110.628 69.4152H110.423V-26H108.171V69.4152H107.967V155.23H110.63V69.4152H110.628Z" fill="#123854"/>
<path d="M92.3935 69.4152H92.2201V-26H89.9839V69.4152H89.8105V155.23H92.3935V69.4152Z" fill="#123854"/>
<path d="M74.1742 69.4152H74.0324V-26H71.7788V69.4152H71.637V155.23H74.1742V69.4152Z" fill="#123854"/>
<path d="M55.9379 69.4152H55.8276V-26H53.5772V69.4152H53.4827V155.23H55.9379V69.4152Z" fill="#123854"/>
<path d="M37.7029 69.4152H37.6399V-26H35.3879V69.4152H35.3091V155.23H37.7029V69.4152Z" fill="#123854"/>
<path d="M834.215 69.4152H835.789V-26H836.924V155.23H834.215V69.4152Z" fill="#123854"/>
<path d="M1672.62 -26H1673.73V155.23H1672.62V-26Z" fill="#123854"/>
<path d="M1654.41 -26H1656.67V155.23H1654.41V-26Z" fill="#123854"/>
<path d="M852.184 69.4152H853.726V-26H855.978V69.4152H857.521V155.23H852.184V69.4152Z" fill="#123854"/>
<path d="M870.418 69.4152H871.914V-26H874.166V69.4152H875.677V155.23H870.418V69.4152Z" fill="#123854"/>
<path d="M888.653 69.4152H890.119V-26H892.371V69.4152H893.835V155.23H888.653V69.4152Z" fill="#123854"/>
<path d="M906.874 69.4152H908.322V-26H910.574V69.4152H912.007V155.23H906.874V69.4152Z" fill="#123854"/>
<path d="M925.109 69.4152H926.51V-26H928.762V69.4152H930.163V155.23H925.109V69.4152Z" fill="#123854"/>
<path d="M943.344 69.4152H944.713V-26H946.965V69.4152H948.336V155.23H943.344V69.4152Z" fill="#123854"/>
<path d="M961.579 69.4152H962.902V-26H965.154V69.4152H966.492V155.23H961.579V69.4152Z" fill="#123854"/>
<path d="M979.8 69.4152H981.106V-26H983.358V69.4152H984.664V155.23H979.8V69.4152Z" fill="#123854"/>
<path d="M998.034 69.4152H999.309V-26H1001.55V69.4152H1002.82V155.23H998.034V69.4152Z" fill="#123854"/>
<path d="M1016.27 69.4152H1017.5V-26H1019.75V69.4152H1020.98V155.23H1016.27V69.4152Z" fill="#123854"/>
<path d="M1034.51 69.4152H1035.7V-26H1037.95V69.4152H1039.15V155.23H1034.51V69.4152Z" fill="#123854"/>
<path d="M1052.72 69.4152H1053.89V-26H1056.14V69.4152H1057.31V155.23H1052.72V69.4152Z" fill="#123854"/>
<path d="M1070.96 69.4152H1072.09V-26H1074.35V69.4152H1075.48V155.23H1070.96V69.4152Z" fill="#123854"/>
<path d="M1089.19 69.4152H1090.3V-26H1092.53V69.4152H1093.64V155.23H1089.19V69.4152Z" fill="#123854"/>
<path d="M1107.43 69.4152H1108.49V-26H1110.74V69.4152H1111.79V155.23H1107.43V69.4152Z" fill="#123854"/>
<path d="M1125.67 69.4152H1126.69V-26H1128.94V69.4152H1129.97V155.23H1125.67V69.4152Z" fill="#123854"/>
<path d="M1143.89 69.4152H1144.88V-26H1147.13V69.4152H1148.12V155.23H1143.89V69.4152Z" fill="#123854"/>
<path d="M1162.12 69.4152H1163.08V-26H1165.33V69.4152H1166.29V155.23H1162.12V69.4152Z" fill="#123854"/>
<path d="M1180.36 69.4152H1181.28V-26H1183.52V69.4152H1184.45V155.23H1180.36V69.4152Z" fill="#123854"/>
<path d="M1198.59 69.4152H1199.47V-26H1201.73V69.4152H1202.62V155.23H1198.59V69.4152Z" fill="#123854"/>
<path d="M1216.81 69.4152H1217.68V-26H1219.93V69.4152H1220.78V155.23H1216.81V69.4152Z" fill="#123854"/>
<path d="M1235.05 69.4152H1235.86V-26H1238.12V69.4152H1238.94V155.23H1235.05V69.4152Z" fill="#123854"/>
<path d="M1253.28 69.4152H1254.07V-26H1256.32V69.4152H1257.11V155.23H1253.28V69.4152Z" fill="#123854"/>
<path d="M1271.52 69.4152H1272.27V-26H1274.51V69.4152H1275.26V155.23H1271.52V69.4152Z" fill="#123854"/>
<path d="M1289.74 69.4152H1290.46V-26H1292.71V69.4152H1293.44V155.23H1289.74V69.4152Z" fill="#123854"/>
<path d="M1307.97 69.4152H1308.67V-26H1310.92V69.4152H1311.59V155.23H1307.97V69.4152Z" fill="#123854"/>
<path d="M1326.21 69.4152H1326.85V-26H1329.11V69.4152H1329.75V155.23H1326.21V69.4152Z" fill="#123854"/>
<path d="M1344.44 69.4152H1345.06V-26H1347.31V69.4152H1347.92V155.23H1344.44V69.4152Z" fill="#123854"/>
<path d="M1362.68 69.4152H1363.24V-26H1365.5V69.4152H1366.08V155.23H1362.68V69.4152Z" fill="#123854"/>
<path d="M1380.9 69.4152H1381.45V-26H1383.7V69.4152H1384.25V155.23H1380.9V69.4152Z" fill="#123854"/>
<path d="M1399.13 69.4152H1399.65V-26H1401.9V69.4152H1402.41V155.23H1399.13V69.4152Z" fill="#123854"/>
<path d="M1417.37 69.4152H1417.84V-26H1420.09V69.4152H1420.58V155.23H1417.37V69.4152Z" fill="#123854"/>
<path d="M1435.6 69.4152H1436.05V-26H1438.3V69.4152H1438.74V155.23H1435.6V69.4152Z" fill="#123854"/>
<path d="M1453.82 69.4152H1454.23V-26H1456.48V69.4152H1456.89V155.23H1453.82V69.4152Z" fill="#123854"/>
<path d="M1472.06 69.4152H1472.44V-26H1474.69V69.4152H1475.07V155.23H1472.06V69.4152Z" fill="#123854"/>
<path d="M1490.29 69.4152H1490.64V-26H1492.89V69.4152H1493.22V155.23H1490.29V69.4152Z" fill="#123854"/>
<path d="M1508.53 69.4152H1508.83V-26H1511.08V69.4152H1511.4V155.23H1508.53V69.4152Z" fill="#123854"/>
<path d="M1526.75 69.4152H1527.03V-26H1529.28V69.4152H1529.55V155.23H1526.75V69.4152Z" fill="#123854"/>
<path d="M1544.98 69.4152H1545.22V-26H1547.47V69.4152H1547.72V155.23H1544.98V69.4152Z" fill="#123854"/>
<path d="M1563.22 69.4152H1563.42V-26H1565.68V69.4152H1565.88V155.23H1563.22V69.4152Z" fill="#123854"/>
<path d="M1581.45 69.4152H1581.62V-26H1583.86V69.4152H1584.03V155.23H1581.45V69.4152Z" fill="#123854"/>
<path d="M1599.68 69.4152H1599.82V-26H1602.06V69.4152H1602.2V155.23H1599.68V69.4152Z" fill="#123854"/>
<path d="M1617.92 69.4152H1618.03V-26H1620.28V69.4152H1620.37V155.23H1617.92V69.4152Z" fill="#123854"/>
<path d="M1636.15 69.4152H1636.21V-26H1638.47V69.4152H1638.54V155.23H1636.15V69.4152Z" fill="#123854"/>
<path d="M839.633 69.4152H838.059V-26H836.924V155.23H839.633V69.4152Z" fill="#123854"/>
</g>
</g>
</mask>
<g mask="url(#mask0_710_1158)">
<rect y="-26" width="1677" height="181.23" fill="#064564"/>
</g>
</g>
<defs>
<clipPath id="clip0_710_1158">
<rect width="1677" height="130" fill="white"/>
</clipPath>
<clipPath id="clip1_710_1158">
<rect width="1677" height="181.23" fill="white" transform="translate(0 -26)"/>
</clipPath>
<clipPath id="clip2_710_1158">
<rect width="1676.77" height="181.23" fill="white" transform="translate(0.114258 -26)"/>
</clipPath>
</defs>
</svg>
