<svg width="31" height="31" viewBox="0 0 31 31" fill="none" xmlns="http://www.w3.org/2000/svg">
<path d="M30.1995 15.3595C30.1995 18.3495 29.3195 21.1195 27.7995 23.4495C27.7695 23.4895 27.7395 23.5395 27.7095 23.5795C25.0495 27.5695 20.5095 30.1995 15.3595 30.1995C10.2095 30.1995 5.56953 27.5095 2.91953 23.4495C2.87953 23.3895 2.82953 23.3195 2.79953 23.2495C1.34953 20.9695 0.519531 18.2595 0.519531 15.3595C0.519531 13.1295 1.00953 11.0195 1.88953 9.11954C1.92953 9.02954 1.96953 8.93953 2.01953 8.84953C4.42953 3.91953 9.49953 0.519531 15.3595 0.519531C21.2195 0.519531 26.2395 3.88954 28.6695 8.78954C28.6895 8.80954 28.6995 8.82953 28.6995 8.84953C29.6595 10.8095 30.1995 13.0195 30.1995 15.3495" fill="white"/>
<path d="M30.1995 15.3595C30.1995 18.3495 29.3195 21.1195 27.7995 23.4495C27.7695 23.4895 27.7395 23.5395 27.7095 23.5795C25.0495 27.5695 20.5095 30.1995 15.3595 30.1995C10.2095 30.1995 5.56953 27.5095 2.91953 23.4495C2.87953 23.3895 2.82953 23.3195 2.79953 23.2495C1.34953 20.9695 0.519531 18.2595 0.519531 15.3595C0.519531 13.1295 1.00953 11.0195 1.88953 9.11954C1.92953 9.02954 1.96953 8.93953 2.01953 8.84953C4.42953 3.91953 9.49953 0.519531 15.3595 0.519531C21.2195 0.519531 26.2395 3.88954 28.6695 8.78954C28.6895 8.80954 28.6995 8.82953 28.6995 8.84953C29.6595 10.8095 30.1995 13.0195 30.1995 15.3495V15.3595Z" stroke="#193A57" stroke-width="1.04" stroke-miterlimit="10"/>
<path d="M8.34961 9.16972L18.0496 4.71973V19.6697L8.34961 24.6697V9.16972Z" fill="white"/>
<path d="M8.34961 9.16972L18.0496 4.71973V19.6697L8.34961 24.6697V9.16972Z" stroke="#193A57" stroke-width="1.04" stroke-linejoin="round"/>
<path d="M12.6797 10.49L22.3797 6.04004V20.99L12.6797 25.99V10.49Z" fill="#193A57"/>
<path d="M15.2798 11.4502L14.4698 12.4402M16.0898 12.7202L14.9898 14.0502M16.0898 11.5902L14.0898 14.0202M20.3199 18.2402L19.5098 19.2302M21.1198 19.5102L20.0198 20.8402M21.1198 18.3802L19.1198 20.8102" stroke="white" stroke-width="0.52" stroke-miterlimit="10"/>
</svg>
