<svg width="16" height="16" viewBox="0 0 16 16" fill="none" xmlns="http://www.w3.org/2000/svg">
<path d="M8 16C12.4183 16 16 12.4183 16 7.99999C16 3.58171 12.4183 0 8 0C3.58172 0 0 3.58171 0 7.99999C0 12.4183 3.58172 16 8 16Z" fill="#0D3754"/>
<path d="M10.4872 9.82681H5.51285V10.7263C5.51285 11.162 5.21797 11.4853 4.84618 11.4994C4.47438 11.5134 4.12823 11.1901 4.12823 10.7263V9.82681H3.39746V7.10008C3.39746 6.53787 3.73079 6.05997 4.23079 5.93347L5.01285 3.74085C5.16669 3.31919 5.52567 3.0662 5.93592 3.03809H10.1026C10.5128 3.0662 10.8718 3.30514 11.0257 3.74085L11.8077 5.93347C12.2821 6.05997 12.6411 6.50973 12.6411 7.07194V9.84083H11.9103V10.7404C11.9103 11.1902 11.6026 11.4994 11.2308 11.5134C10.859 11.5275 10.5257 11.1902 10.5257 10.7404V9.84083L10.4872 9.82681ZM10.9872 5.91944L10.3718 4.1063C10.2949 3.93764 10.1667 3.82518 9.97438 3.82518H5.97438C5.80772 3.82518 5.66669 3.93764 5.61541 4.1063L5.00003 5.93347H10.9872V5.91944ZM5.4872 7.46549C5.4872 7.07194 5.19233 6.7487 4.83336 6.7487C4.47438 6.7487 4.17951 7.07194 4.17951 7.46549C4.17951 7.85903 4.47438 8.18232 4.83336 8.18232C5.19233 8.18232 5.4872 7.85903 5.4872 7.46549ZM11.8077 7.46549C11.8077 7.07194 11.5128 6.7487 11.1539 6.7487C10.7949 6.7487 10.5 7.07194 10.5 7.46549C10.5 7.85903 10.7949 8.18232 11.1539 8.18232C11.5128 8.18232 11.8077 7.85903 11.8077 7.46549Z" fill="white"/>
</svg>
